<?xml version="1.0" encoding="UTF-8"?>
<!DOCTYPE svg PUBLIC "-//W3C//DTD SVG 1.1//EN" "http://www.w3.org/Graphics/SVG/1.1/DTD/svg11.dtd">
<svg xmlns="http://www.w3.org/2000/svg" version="1.1" width="135px" height="30px" style="shape-rendering:geometricPrecision; text-rendering:geometricPrecision; image-rendering:optimizeQuality; fill-rule:evenodd; clip-rule:evenodd" xmlns:xlink="http://www.w3.org/1999/xlink">
<g><path style="opacity:0.819" fill="#fefffe" d="M 0.5,5.5 C 4.18174,5.3347 7.84841,5.50137 11.5,6C 14.128,9.46509 14.128,12.9651 11.5,16.5C 12.373,18.4134 13.373,20.2467 14.5,22C 9.69971,23.2821 6.86638,21.4487 6,16.5C 5.50454,18.4727 5.33788,20.4727 5.5,22.5C 3.83333,22.5 2.16667,22.5 0.5,22.5C 0.5,16.8333 0.5,11.1667 0.5,5.5 Z M 5.5,8.5 C 8.95626,9.53625 9.28959,11.2029 6.5,13.5C 5.54811,11.9547 5.21478,10.288 5.5,8.5 Z"/></g>
<g><path style="opacity:0.933" fill="#fefffe" d="M 40.5,5.5 C 41.8333,5.5 43.1667,5.5 44.5,5.5C 44.5,11.1667 44.5,16.8333 44.5,22.5C 43.1667,22.5 41.8333,22.5 40.5,22.5C 40.5,16.8333 40.5,11.1667 40.5,5.5 Z"/></g>
<g><path style="opacity:0.824" fill="#fefffe" d="M 74.5,5.5 C 77.5788,5.26006 80.5788,5.59339 83.5,6.5C 84.9501,7.84983 85.6168,9.5165 85.5,11.5C 82.6755,11.9193 80.5088,10.9193 79,8.5C 76.4161,11.4059 75.9161,14.7392 77.5,18.5C 78.8626,19.8793 79.8626,19.7126 80.5,18C 79.2927,16.6998 78.6261,15.1998 78.5,13.5C 80.8333,13.5 83.1667,13.5 85.5,13.5C 86.5267,22.0108 82.86,24.8442 74.5,22C 70.5368,16.5011 70.5368,11.0011 74.5,5.5 Z"/></g>
<g><path style="opacity:0.783" fill="#fefffe" d="M 120.5,5.5 C 122.167,5.5 123.833,5.5 125.5,5.5C 125.5,7.16667 125.5,8.83333 125.5,10.5C 128.044,10.1043 130.211,10.771 132,12.5C 132.498,15.8168 132.665,19.1501 132.5,22.5C 130.833,22.5 129.167,22.5 127.5,22.5C 126.833,10.5 126.167,10.5 125.5,22.5C 123.833,22.5 122.167,22.5 120.5,22.5C 120.5,16.8333 120.5,11.1667 120.5,5.5 Z"/></g>
<g><path style="opacity:0.921" fill="#fefffe" d="M 15.5,10.5 C 16.8333,10.5 18.1667,10.5 19.5,10.5C 20.5,22.5 21.5,22.5 22.5,10.5C 23.8333,10.5 25.1667,10.5 26.5,10.5C 26.5,14.5 26.5,18.5 26.5,22.5C 22.8936,22.7892 19.3936,22.4558 16,21.5C 15.5014,17.8484 15.3347,14.1817 15.5,10.5 Z"/></g>
<g><path style="opacity:0.775" fill="#fefffe" d="M 29.5,10.5 C 32.2492,10.2739 34.9159,10.6072 37.5,11.5C 39.421,13.4691 39.421,14.9691 37.5,16C 40.1667,18 40.1667,20 37.5,22C 34.0074,23.0037 30.8408,22.5037 28,20.5C 27.342,18.892 27.842,17.7253 29.5,17C 26.9387,14.8441 26.9387,12.6774 29.5,10.5 Z"/></g>
<g><path style="opacity:0.809" fill="#fefffe" d="M 47.5,10.5 C 50.4475,10.2229 53.2809,10.5562 56,11.5C 57.3368,15.0257 57.8368,18.6924 57.5,22.5C 54.1501,22.665 50.8168,22.4983 47.5,22C 44.8333,20 44.8333,18 47.5,16C 49.1667,15.6667 50.8333,15.3333 52.5,15C 52,14.5 51.5,14 51,13.5C 45.4818,17.1037 44.3152,16.1037 47.5,10.5 Z M 50.5,17.5 C 53.0009,17.5109 53.1676,18.1776 51,19.5C 50.5357,18.9056 50.369,18.2389 50.5,17.5 Z"/></g>
<g><path style="opacity:0.84" fill="#fefffe" d="M 58.5,10.5 C 61.8499,10.335 65.1832,10.5017 68.5,11C 70.2902,14.5828 70.9569,18.4161 70.5,22.5C 68.8333,22.5 67.1667,22.5 65.5,22.5C 64.5,10.5 63.5,10.5 62.5,22.5C 61.1667,22.5 59.8333,22.5 58.5,22.5C 58.5,18.5 58.5,14.5 58.5,10.5 Z"/></g>
<g><path style="opacity:0.846" fill="#fefffe" d="M 96.5,15.5 C 94.9902,14.2721 93.4902,14.2721 92,15.5C 91.5034,17.8098 91.3367,20.1432 91.5,22.5C 90.1667,22.5 88.8333,22.5 87.5,22.5C 87.5,18.5 87.5,14.5 87.5,10.5C 93.2035,11.3788 98.8702,11.5454 104.5,11C 105,11.5 105.5,12 106,12.5C 106.498,15.8168 106.665,19.1501 106.5,22.5C 103.15,22.665 99.8168,22.4983 96.5,22C 93.9387,19.8441 93.9387,17.6774 96.5,15.5 Z M 96.5,15.5 C 97.8775,14.7656 99.3775,14.0989 101,13.5C 101.167,13.8333 101.333,14.1667 101.5,14.5C 99.9547,15.4519 98.288,15.7852 96.5,15.5 Z M 100.5,17.5 C 101.773,18.0768 101.773,18.7435 100.5,19.5C 99.537,19.0302 99.537,18.3635 100.5,17.5 Z"/></g>
<g><path style="opacity:0.818" fill="#fefffe" d="M 107.5,10.5 C 116.975,7.81911 120.808,11.1524 119,20.5C 117.211,22.229 115.044,22.8957 112.5,22.5C 112.5,24.1667 112.5,25.8333 112.5,27.5C 110.833,27.5 109.167,27.5 107.5,27.5C 107.5,21.8333 107.5,16.1667 107.5,10.5 Z M 112.5,13.5 C 115.873,14.9315 116.207,16.9315 113.5,19.5C 112.534,17.604 112.201,15.604 112.5,13.5 Z"/></g>
</svg>
